<mxfile host="app.diagrams.net" modified="2020-03-22T06:49:59.732Z" agent="Mozilla/5.0 (Macintosh; Intel Mac OS X 10_13_1) AppleWebKit/604.3.5 (KHTML, like Gecko) Version/11.0.1 Safari/604.3.5" etag="ClAcbT9IGl2PVwZySriA" version="12.8.8" type="github">
  <diagram id="YguLnfkQG6liReOPlqBq" name="第 1 页">
    <mxGraphModel dx="3226" dy="2095" grid="1" gridSize="10" guides="1" tooltips="1" connect="1" arrows="1" fold="1" page="1" pageScale="1" pageWidth="827" pageHeight="1169" math="0" shadow="0">
      <root>
        <mxCell id="zzVsezNJESSriw6hliC2-0" />
        <mxCell id="zzVsezNJESSriw6hliC2-1" parent="zzVsezNJESSriw6hliC2-0" />
        <mxCell id="iRJmdEVSlf2xV_HENHgT-5" value="" style="ellipse;fillColor=none;opacity=60;strokeColor=#000000;html=1;fontColor=#FFFFFF;aspect=fixed;strokeWidth=4;" vertex="1" parent="zzVsezNJESSriw6hliC2-1">
          <mxGeometry x="114" y="20" width="780" height="780" as="geometry" />
        </mxCell>
        <mxCell id="n1EONHTixltMgKwFgd6H-4" value="Revolution" style="text;fontSize=24;align=center;verticalAlign=middle;html=1;fontColor=#FFFFFF;" vertex="1" parent="zzVsezNJESSriw6hliC2-1">
          <mxGeometry x="540" y="320" width="190" height="70" as="geometry" />
        </mxCell>
        <mxCell id="n1EONHTixltMgKwFgd6H-6" value="Military" style="text;align=center;html=1;fontColor=#FFFFFF;fontSize=16;" vertex="1" parent="zzVsezNJESSriw6hliC2-1">
          <mxGeometry x="410" y="290" width="40" height="40" as="geometry" />
        </mxCell>
        <mxCell id="n1EONHTixltMgKwFgd6H-7" value="Conflict" style="text;align=center;html=1;fontColor=#FFFFFF;fontSize=16;" vertex="1" parent="zzVsezNJESSriw6hliC2-1">
          <mxGeometry x="290" y="510" width="40" height="40" as="geometry" />
        </mxCell>
        <mxCell id="n1EONHTixltMgKwFgd6H-8" value="Chaos" style="text;align=center;html=1;fontColor=#FFFFFF;fontSize=16;" vertex="1" parent="zzVsezNJESSriw6hliC2-1">
          <mxGeometry x="540" y="510" width="40" height="40" as="geometry" />
        </mxCell>
        <mxCell id="n1EONHTixltMgKwFgd6H-9" value="Balance" style="text;align=center;html=1;fontColor=#FFFFFF;fontSize=16;" vertex="1" parent="zzVsezNJESSriw6hliC2-1">
          <mxGeometry x="410" y="440" width="40" height="40" as="geometry" />
        </mxCell>
        <mxCell id="n1EONHTixltMgKwFgd6H-52" value="" style="group" vertex="1" connectable="0" parent="zzVsezNJESSriw6hliC2-1">
          <mxGeometry x="-530" y="400" width="746.36" height="600" as="geometry" />
        </mxCell>
        <mxCell id="n1EONHTixltMgKwFgd6H-40" value="" style="ellipse;fillColor=none;opacity=60;strokeColor=#000000;html=1;fontColor=#FFFFFF;aspect=fixed;strokeWidth=4;" vertex="1" parent="n1EONHTixltMgKwFgd6H-52">
          <mxGeometry x="-30" y="-30" width="620" height="620" as="geometry" />
        </mxCell>
        <mxCell id="n1EONHTixltMgKwFgd6H-49" value="" style="group" vertex="1" connectable="0" parent="n1EONHTixltMgKwFgd6H-52">
          <mxGeometry x="30" y="50" width="304" height="160" as="geometry" />
        </mxCell>
        <mxCell id="n1EONHTixltMgKwFgd6H-19" value="" style="ellipse;fillColor=#12AAB5;opacity=60;strokeColor=none;html=1;fontColor=#FFFFFF;aspect=fixed;" vertex="1" parent="n1EONHTixltMgKwFgd6H-49">
          <mxGeometry x="72" width="160" height="160" as="geometry" />
        </mxCell>
        <mxCell id="n1EONHTixltMgKwFgd6H-20" value="K8S" style="text;fontSize=24;align=center;verticalAlign=middle;html=1;fontColor=#FFFFFF;" vertex="1" parent="n1EONHTixltMgKwFgd6H-49">
          <mxGeometry y="24" width="304" height="112" as="geometry" />
        </mxCell>
        <mxCell id="n1EONHTixltMgKwFgd6H-44" value="" style="group" vertex="1" connectable="0" parent="n1EONHTixltMgKwFgd6H-52">
          <mxGeometry x="70" y="110" width="676.36" height="421.13" as="geometry" />
        </mxCell>
        <mxCell id="n1EONHTixltMgKwFgd6H-16" value="" style="ellipse;fillColor=#FF8000;opacity=60;strokeColor=none;html=1;fontColor=#FFFFFF;aspect=fixed;" vertex="1" parent="n1EONHTixltMgKwFgd6H-44">
          <mxGeometry x="149.04861842105262" width="331.1261061501436" height="331.1261061501436" as="geometry" />
        </mxCell>
        <mxCell id="n1EONHTixltMgKwFgd6H-17" value="持续集成&lt;br&gt;CI/CD" style="text;fontSize=24;align=center;verticalAlign=middle;html=1;fontColor=#FFFFFF;" vertex="1" parent="n1EONHTixltMgKwFgd6H-44">
          <mxGeometry x="-4.48" y="131.12775000000002" width="638.18" height="231.79100000000005" as="geometry" />
        </mxCell>
        <mxCell id="iRJmdEVSlf2xV_HENHgT-30" value="" style="group" vertex="1" connectable="0" parent="n1EONHTixltMgKwFgd6H-44">
          <mxGeometry x="176.17000000000002" y="6.1299999999999955" width="304" height="160" as="geometry" />
        </mxCell>
        <mxCell id="n1EONHTixltMgKwFgd6H-38" value="" style="ellipse;fillColor=#12AAB5;opacity=60;strokeColor=none;html=1;fontColor=#FFFFFF;aspect=fixed;" vertex="1" parent="iRJmdEVSlf2xV_HENHgT-30">
          <mxGeometry x="72" width="160" height="160" as="geometry" />
        </mxCell>
        <mxCell id="n1EONHTixltMgKwFgd6H-39" value="Jenkins" style="text;fontSize=24;align=center;verticalAlign=middle;html=1;fontColor=#FFFFFF;" vertex="1" parent="iRJmdEVSlf2xV_HENHgT-30">
          <mxGeometry y="24" width="304" height="112" as="geometry" />
        </mxCell>
        <mxCell id="n1EONHTixltMgKwFgd6H-51" value="&lt;font color=&quot;#000000&quot;&gt;自动化部署&lt;/font&gt;" style="text;fontSize=24;align=center;verticalAlign=middle;html=1;fontColor=#FFFFFF;" vertex="1" parent="n1EONHTixltMgKwFgd6H-44">
          <mxGeometry x="-90" y="230" width="304" height="112" as="geometry" />
        </mxCell>
        <mxCell id="n1EONHTixltMgKwFgd6H-53" value="" style="group" vertex="1" connectable="0" parent="zzVsezNJESSriw6hliC2-1">
          <mxGeometry x="-530" y="-30" width="420.32" height="379" as="geometry" />
        </mxCell>
        <mxCell id="n1EONHTixltMgKwFgd6H-25" value="" style="ellipse;fillColor=#00CC00;opacity=60;strokeColor=none;html=1;fontColor=#FFFFFF;aspect=fixed;" vertex="1" parent="n1EONHTixltMgKwFgd6H-53">
          <mxGeometry width="376.65" height="379" as="geometry" />
        </mxCell>
        <mxCell id="n1EONHTixltMgKwFgd6H-21" value="" style="group" vertex="1" connectable="0" parent="n1EONHTixltMgKwFgd6H-53">
          <mxGeometry x="116.32" y="49" width="304" height="160" as="geometry" />
        </mxCell>
        <mxCell id="n1EONHTixltMgKwFgd6H-22" value="" style="ellipse;fillColor=#12AAB5;opacity=60;strokeColor=none;html=1;fontColor=#FFFFFF;aspect=fixed;" vertex="1" parent="n1EONHTixltMgKwFgd6H-21">
          <mxGeometry x="72" width="160" height="160" as="geometry" />
        </mxCell>
        <mxCell id="n1EONHTixltMgKwFgd6H-23" value="Spring Cloud" style="text;fontSize=24;align=center;verticalAlign=middle;html=1;fontColor=#FFFFFF;" vertex="1" parent="n1EONHTixltMgKwFgd6H-21">
          <mxGeometry y="24" width="304" height="112" as="geometry" />
        </mxCell>
        <mxCell id="n1EONHTixltMgKwFgd6H-26" value="微服务" style="text;fontSize=24;align=center;verticalAlign=middle;html=1;fontColor=#FFFFFF;" vertex="1" parent="n1EONHTixltMgKwFgd6H-53">
          <mxGeometry x="26.319999999999993" y="159" width="304" height="113" as="geometry" />
        </mxCell>
        <mxCell id="iRJmdEVSlf2xV_HENHgT-3" value="" style="group" vertex="1" connectable="0" parent="n1EONHTixltMgKwFgd6H-53">
          <mxGeometry x="-270" y="120.00000000000001" width="434" height="228.42" as="geometry" />
        </mxCell>
        <mxCell id="n1EONHTixltMgKwFgd6H-1" value="" style="ellipse;fillColor=#FF8000;opacity=60;strokeColor=none;html=1;fontColor=#FFFFFF;aspect=fixed;" vertex="1" parent="iRJmdEVSlf2xV_HENHgT-3">
          <mxGeometry x="102.78947368421053" width="228.41935643564358" height="228.41935643564358" as="geometry" />
        </mxCell>
        <mxCell id="n1EONHTixltMgKwFgd6H-3" value="DDD" style="text;fontSize=24;align=center;verticalAlign=middle;html=1;fontColor=#FFFFFF;" vertex="1" parent="iRJmdEVSlf2xV_HENHgT-3">
          <mxGeometry y="34.263" width="434" height="159.89399999999998" as="geometry" />
        </mxCell>
        <mxCell id="iRJmdEVSlf2xV_HENHgT-2" value="" style="group" vertex="1" connectable="0" parent="zzVsezNJESSriw6hliC2-1">
          <mxGeometry x="-1080" y="80" width="437" height="230" as="geometry" />
        </mxCell>
        <mxCell id="n1EONHTixltMgKwFgd6H-12" value="" style="group" vertex="1" connectable="0" parent="iRJmdEVSlf2xV_HENHgT-2">
          <mxGeometry width="437" height="230" as="geometry" />
        </mxCell>
        <mxCell id="n1EONHTixltMgKwFgd6H-13" value="" style="ellipse;fillColor=#FF8000;opacity=60;strokeColor=none;html=1;fontColor=#FFFFFF;aspect=fixed;" vertex="1" parent="n1EONHTixltMgKwFgd6H-12">
          <mxGeometry x="103.5" width="230" height="230" as="geometry" />
        </mxCell>
        <mxCell id="n1EONHTixltMgKwFgd6H-14" value="TDD" style="text;fontSize=24;align=center;verticalAlign=middle;html=1;fontColor=#FFFFFF;" vertex="1" parent="n1EONHTixltMgKwFgd6H-12">
          <mxGeometry y="34.5" width="437" height="161" as="geometry" />
        </mxCell>
        <mxCell id="iRJmdEVSlf2xV_HENHgT-4" value="" style="group" vertex="1" connectable="0" parent="zzVsezNJESSriw6hliC2-1">
          <mxGeometry x="247" y="96" width="670" height="690" as="geometry" />
        </mxCell>
        <mxCell id="iRJmdEVSlf2xV_HENHgT-6" value="" style="group" vertex="1" connectable="0" parent="iRJmdEVSlf2xV_HENHgT-4">
          <mxGeometry x="30" y="50" width="304" height="170" as="geometry" />
        </mxCell>
        <mxCell id="iRJmdEVSlf2xV_HENHgT-7" value="" style="ellipse;fillColor=#12AAB5;opacity=60;strokeColor=none;html=1;fontColor=#FFFFFF;aspect=fixed;" vertex="1" parent="iRJmdEVSlf2xV_HENHgT-6">
          <mxGeometry x="72" width="160" height="160" as="geometry" />
        </mxCell>
        <mxCell id="iRJmdEVSlf2xV_HENHgT-8" value="Flink/Spark" style="text;fontSize=24;align=center;verticalAlign=middle;html=1;fontColor=#FFFFFF;" vertex="1" parent="iRJmdEVSlf2xV_HENHgT-6">
          <mxGeometry y="24" width="304" height="112" as="geometry" />
        </mxCell>
        <mxCell id="iRJmdEVSlf2xV_HENHgT-16" value="" style="group" vertex="1" connectable="0" parent="iRJmdEVSlf2xV_HENHgT-4">
          <mxGeometry x="240" y="60" width="304" height="160" as="geometry" />
        </mxCell>
        <mxCell id="iRJmdEVSlf2xV_HENHgT-10" value="" style="ellipse;fillColor=#12AAB5;opacity=60;strokeColor=none;html=1;fontColor=#FFFFFF;aspect=fixed;" vertex="1" parent="iRJmdEVSlf2xV_HENHgT-16">
          <mxGeometry x="72" width="160" height="160" as="geometry" />
        </mxCell>
        <mxCell id="iRJmdEVSlf2xV_HENHgT-11" value="Hadoop" style="text;fontSize=24;align=center;verticalAlign=middle;html=1;fontColor=#FFFFFF;" vertex="1" parent="iRJmdEVSlf2xV_HENHgT-16">
          <mxGeometry y="24" width="304" height="112" as="geometry" />
        </mxCell>
        <mxCell id="iRJmdEVSlf2xV_HENHgT-17" value="" style="group" vertex="1" connectable="0" parent="iRJmdEVSlf2xV_HENHgT-4">
          <mxGeometry x="290" y="230" width="304" height="160" as="geometry" />
        </mxCell>
        <mxCell id="iRJmdEVSlf2xV_HENHgT-18" value="" style="ellipse;fillColor=#12AAB5;opacity=60;strokeColor=none;html=1;fontColor=#FFFFFF;aspect=fixed;" vertex="1" parent="iRJmdEVSlf2xV_HENHgT-17">
          <mxGeometry x="72" width="160" height="160" as="geometry" />
        </mxCell>
        <mxCell id="iRJmdEVSlf2xV_HENHgT-19" value="Hbase" style="text;fontSize=24;align=center;verticalAlign=middle;html=1;fontColor=#FFFFFF;" vertex="1" parent="iRJmdEVSlf2xV_HENHgT-17">
          <mxGeometry y="24" width="304" height="112" as="geometry" />
        </mxCell>
        <mxCell id="iRJmdEVSlf2xV_HENHgT-23" value="" style="group" vertex="1" connectable="0" parent="iRJmdEVSlf2xV_HENHgT-4">
          <mxGeometry x="220" y="375" width="304" height="160" as="geometry" />
        </mxCell>
        <mxCell id="iRJmdEVSlf2xV_HENHgT-24" value="" style="ellipse;fillColor=#12AAB5;opacity=60;strokeColor=none;html=1;fontColor=#FFFFFF;aspect=fixed;" vertex="1" parent="iRJmdEVSlf2xV_HENHgT-23">
          <mxGeometry x="72" width="160" height="160" as="geometry" />
        </mxCell>
        <mxCell id="iRJmdEVSlf2xV_HENHgT-25" value="Kafka" style="text;fontSize=24;align=center;verticalAlign=middle;html=1;fontColor=#FFFFFF;" vertex="1" parent="iRJmdEVSlf2xV_HENHgT-23">
          <mxGeometry y="24" width="304" height="112" as="geometry" />
        </mxCell>
        <mxCell id="iRJmdEVSlf2xV_HENHgT-20" value="" style="group" vertex="1" connectable="0" parent="iRJmdEVSlf2xV_HENHgT-4">
          <mxGeometry x="-14" y="400" width="304" height="160" as="geometry" />
        </mxCell>
        <mxCell id="iRJmdEVSlf2xV_HENHgT-21" value="" style="ellipse;fillColor=#12AAB5;opacity=60;strokeColor=none;html=1;fontColor=#FFFFFF;aspect=fixed;" vertex="1" parent="iRJmdEVSlf2xV_HENHgT-20">
          <mxGeometry x="72" width="160" height="160" as="geometry" />
        </mxCell>
        <mxCell id="iRJmdEVSlf2xV_HENHgT-22" value="Elasticsearch" style="text;fontSize=24;align=center;verticalAlign=middle;html=1;fontColor=#FFFFFF;" vertex="1" parent="iRJmdEVSlf2xV_HENHgT-20">
          <mxGeometry y="24" width="304" height="112" as="geometry" />
        </mxCell>
        <mxCell id="iRJmdEVSlf2xV_HENHgT-27" value="" style="group" vertex="1" connectable="0" parent="iRJmdEVSlf2xV_HENHgT-4">
          <mxGeometry x="-100" y="200" width="304" height="160" as="geometry" />
        </mxCell>
        <mxCell id="iRJmdEVSlf2xV_HENHgT-28" value="" style="ellipse;fillColor=#FF8000;opacity=60;strokeColor=none;html=1;fontColor=#FFFFFF;aspect=fixed;" vertex="1" parent="iRJmdEVSlf2xV_HENHgT-27">
          <mxGeometry x="72" width="160" height="160" as="geometry" />
        </mxCell>
        <mxCell id="iRJmdEVSlf2xV_HENHgT-29" value="数仓理论" style="text;fontSize=24;align=center;verticalAlign=middle;html=1;fontColor=#FFFFFF;" vertex="1" parent="iRJmdEVSlf2xV_HENHgT-27">
          <mxGeometry y="24" width="304" height="112" as="geometry" />
        </mxCell>
        <mxCell id="iRJmdEVSlf2xV_HENHgT-15" value="&lt;font color=&quot;#000000&quot;&gt;大数据&lt;/font&gt;" style="text;fontSize=24;align=center;verticalAlign=middle;html=1;fontColor=#FFFFFF;" vertex="1" parent="iRJmdEVSlf2xV_HENHgT-4">
          <mxGeometry x="112" y="230" width="304" height="112" as="geometry" />
        </mxCell>
      </root>
    </mxGraphModel>
  </diagram>
</mxfile>
